<svg xmlns="http://www.w3.org/2000/svg" xmlns:xlink="http://www.w3.org/1999/xlink" width="200" zoomAndPan="magnify" viewBox="0 0 150 149.999998" height="200" preserveAspectRatio="xMidYMid meet" version="1.0"><defs><clipPath id="5d4e248e54"><path d="M 59.832031 52.742188 L 134 52.742188 L 134 121.144531 L 59.832031 121.144531 Z M 59.832031 52.742188 " clip-rule="nonzero"/></clipPath><clipPath id="01886c9710"><path d="M 61.8125 121.023438 L 68.066406 112.773438 C 71.882812 107.8125 76.570312 103.828125 82.324219 101.378906 C 89.308594 98.40625 96.539062 95.988281 103.492188 92.945312 C 108.011719 90.96875 113.085938 89.308594 113.238281 82.734375 C 113.316406 79.171875 114.503906 75.648438 114.902344 72.082031 C 115.316406 68.375 117.214844 66.171875 120.679688 65.023438 C 123.882812 63.957031 127.101562 62.859375 130.191406 61.507812 C 133.628906 60.003906 134.136719 55.96875 130.949219 54.066406 C 129.1875 53.019531 126.632812 52.78125 124.53125 53.011719 C 122.316406 53.257812 120.242188 54.574219 118.0625 55.292969 C 103.625 60.023438 106.335938 58.253906 104.371094 71.027344 C 103.109375 79.246094 100.332031 83.839844 92.113281 85.632812 C 87.253906 86.695312 82.847656 89.761719 78.007812 91.070312 C 69.535156 93.351562 65.191406 100.070312 60.257812 106.257812 C 59.929688 106.664062 59.886719 107.441406 59.957031 108.007812 L 61.839844 121.03125 " clip-rule="nonzero"/></clipPath><clipPath id="278682d3bb"><path d="M 9 38.082031 L 107 38.082031 L 107 83 L 9 83 Z M 9 38.082031 " clip-rule="nonzero"/></clipPath><clipPath id="ade1a949d9"><path d="M 53.875 38.421875 C 52.074219 38.421875 50.25 38.777344 48.40625 39.46875 C 40.59375 42.394531 34.621094 47.300781 31.261719 55.140625 C 28.070312 62.597656 27.664062 63.460938 21.140625 63.460938 C 20.289062 63.460938 19.332031 63.449219 18.246094 63.433594 C 18.175781 63.433594 18.101562 63.433594 18.03125 63.433594 C 15.601562 63.433594 13.683594 64.109375 12.726562 66.59375 L 9.875 74.035156 C 9.5 75.191406 9.300781 76.222656 9.292969 77.152344 L 9.292969 77.246094 C 9.308594 79.609375 10.566406 81.324219 13.242188 82.742188 L 14.96875 78.5625 C 17.578125 72.195312 17.390625 70.945312 20.9375 70.945312 C 22.128906 70.945312 23.742188 71.085938 26.03125 71.222656 C 26.453125 71.246094 26.859375 71.257812 27.25 71.257812 C 31.394531 71.257812 33.972656 69.8125 35.410156 65.570312 C 36.09375 63.550781 37.351562 61.71875 38.339844 59.800781 C 40.527344 55.578125 43.761719 52.480469 48.054688 50.398438 C 50.121094 49.394531 52.125 48.828125 54.144531 48.828125 C 55.992188 48.828125 57.859375 49.292969 59.804688 50.324219 C 65.257812 53.1875 70.910156 55.679688 76.570312 58.121094 C 77.753906 58.628906 79.222656 59.085938 80.53125 59.085938 C 80.964844 59.085938 81.382812 59.035156 81.757812 58.921875 C 89.039062 56.710938 96.257812 54.261719 103.398438 51.632812 C 106.75 50.398438 107.074219 46.707031 104.367188 44.359375 C 103.058594 43.222656 101.683594 42.816406 100.265625 42.816406 C 99.03125 42.816406 97.765625 43.128906 96.488281 43.535156 C 92.113281 44.9375 87.820312 46.683594 83.351562 47.636719 C 82.363281 47.847656 81.300781 47.953125 80.226562 47.953125 C 78.554688 47.953125 76.859375 47.695312 75.40625 47.132812 C 70.34375 45.195312 65.511719 42.621094 60.671875 40.144531 C 58.410156 38.988281 56.152344 38.421875 53.867188 38.421875 Z M 53.875 38.421875 " clip-rule="nonzero"/></clipPath><clipPath id="1c1e8d7419"><path d="M 22 19 L 112.917969 19 L 112.917969 47 L 22 47 Z M 22 19 " clip-rule="nonzero"/></clipPath><clipPath id="a7193ee4d5"><path d="M 80.660156 40.054688 L 88.300781 37.765625 C 95.128906 35.695312 102.019531 33.800781 108.738281 31.421875 C 110.28125 30.878906 112.488281 28.3125 112.199219 27.339844 C 111.683594 25.640625 109.671875 24.054688 107.90625 23.175781 C 106.707031 22.578125 104.792969 23.03125 103.320312 23.429688 C 98.179688 24.824219 93.023438 26.175781 88.015625 27.964844 C 83.160156 29.699219 78.707031 29.882812 74.164062 27.035156 C 71.519531 25.371094 68.359375 24.519531 65.722656 22.855469 C 60.074219 19.289062 54.386719 18.605469 48.136719 21.167969 C 45.367188 22.3125 42.285156 22.6875 39.363281 23.457031 C 31.335938 25.589844 25.542969 30.332031 22.765625 38.261719 C 22.136719 40.078125 22.15625 42.324219 22.5625 44.226562 C 22.804688 45.351562 24.300781 46.851562 25.375 46.972656 C 26.300781 47.082031 27.925781 45.695312 28.378906 44.613281 C 31.195312 37.875 36.3125 34.148438 43.222656 32.5 C 46.050781 31.824219 48.804688 30.609375 51.652344 30.363281 C 54.515625 30.113281 57.691406 30.136719 60.316406 31.140625 C 65.835938 33.246094 71.070312 36.101562 76.445312 38.589844 L 80.652344 40.054688 " clip-rule="nonzero"/></clipPath><clipPath id="1fccdcd9f1"><path d="M 42 72.285156 L 79 72.285156 L 79 141 L 42 141 Z M 42 72.285156 " clip-rule="nonzero"/></clipPath><clipPath id="effa1efa37"><path d="M 71.191406 72.386719 C 70.625 72.386719 70.089844 72.457031 69.617188 72.609375 C 61.964844 75.109375 55.628906 79.625 51.609375 86.90625 L 48.832031 91.121094 C 45.089844 97.457031 41.078125 103.648438 43.71875 111.699219 C 44.835938 115.113281 45.011719 118.835938 45.738281 122.382812 C 46.355469 125.367188 46.160156 128.035156 44.210938 130.613281 C 43.179688 131.980469 42.808594 133.847656 42.539062 134.5 C 42.539062 138.636719 43.957031 140.847656 45.898438 140.851562 L 45.910156 140.851562 C 46.347656 140.851562 46.804688 140.738281 47.285156 140.519531 C 51.144531 138.703125 55.714844 129.792969 54.945312 125.503906 C 54.023438 120.390625 52.875 115.304688 52.191406 110.152344 C 51.886719 107.863281 51.738281 105.058594 52.773438 103.167969 C 56.164062 96.933594 58.816406 89.957031 65.933594 86.613281 L 75.507812 81.949219 C 79.351562 80.101562 80.074219 76.417969 76.578125 74.0625 C 75.160156 73.113281 73.023438 72.386719 71.199219 72.386719 Z M 71.191406 72.386719 " clip-rule="nonzero"/></clipPath><clipPath id="c690c614fa"><path d="M 25.164062 68 L 48.457031 68 L 48.457031 112 L 25.164062 112 Z M 25.164062 68 " clip-rule="nonzero"/></clipPath><clipPath id="c80e0f2844"><path d="M 48.171875 73.957031 C 47.066406 72.34375 46.171875 69.507812 44.453125 68.847656 C 41.558594 67.742188 40.941406 71.085938 40.027344 73.011719 L 33.070312 88.539062 C 30.644531 93.910156 27.847656 99.132812 25.890625 104.664062 C 25.28125 106.386719 26.25 109.839844 27.664062 110.839844 C 30.042969 112.535156 31 109.554688 31.871094 107.824219 C 33.710938 104.164062 35.246094 100.339844 37.164062 96.722656 L 46.109375 80.597656 C 47.039062 78.824219 47.34375 76.722656 48.179688 73.957031 " clip-rule="nonzero"/></clipPath><clipPath id="f31aa36b82"><path d="M 71.207031 100 L 117.792969 100 L 117.792969 116.800781 L 71.207031 116.800781 Z M 71.207031 100 " clip-rule="nonzero"/></clipPath><clipPath id="28947e7dc7"><path d="M 71.542969 116.71875 C 73.984375 115.738281 75.523438 115.15625 77.027344 114.511719 C 82.574219 112.121094 88.03125 109.488281 93.691406 107.425781 C 95.558594 106.75 98.261719 106.882812 100.050781 107.746094 C 106.015625 110.625 114.648438 107.542969 117.554688 100.5 C 115.273438 101.417969 113.347656 101.96875 111.648438 102.929688 C 108.070312 104.933594 104.976562 104.519531 101.488281 102.375 C 99.699219 101.277344 96.824219 101.015625 94.730469 101.539062 C 90.898438 102.507812 87.113281 104.003906 83.632812 105.886719 C 79.144531 108.3125 74.871094 111.226562 71.542969 116.71875 " clip-rule="nonzero"/></clipPath><clipPath id="f7f84c6f04"><path d="M 55 110 L 99.375 110 L 99.375 140 L 55 140 Z M 55 110 " clip-rule="nonzero"/></clipPath><clipPath id="ef86d6fb93"><path d="M 98.929688 112.441406 L 99.066406 111.605469 C 97.273438 110.957031 95.1875 110.085938 93.574219 110.625 C 88.554688 112.300781 83.773438 114.46875 79.898438 118.449219 C 74.367188 124.132812 68.933594 129.96875 61.105469 132.875 C 58.914062 133.6875 57.34375 136.203125 55.488281 137.933594 L 56.761719 139.652344 C 62.175781 136.71875 68.453125 134.707031 72.820312 130.652344 C 80.488281 123.527344 87.871094 116.386719 98.085938 113.085938 L 98.648438 112.65625 " clip-rule="nonzero"/></clipPath><clipPath id="728eba2e21"><path d="M 122 69.027344 L 141 69.027344 L 141 82.601562 L 122 82.601562 Z M 122 69.027344 " clip-rule="nonzero"/></clipPath><clipPath id="9ab766ded5"><path d="M 134.644531 69.289062 C 133.425781 69.289062 132.175781 69.644531 130.917969 70.308594 C 129.226562 71.203125 127.589844 72.355469 125.78125 72.859375 C 123.097656 73.597656 121.480469 75.300781 122.429688 77.726562 C 123.164062 79.574219 125.375 80.835938 127.058594 82.480469 C 131.164062 80.75 134.429688 79.355469 137.699219 77.996094 C 139.644531 77.1875 140.683594 75.765625 140.707031 74.261719 L 140.707031 74.152344 C 140.683594 72.96875 140.039062 71.738281 138.714844 70.742188 C 137.40625 69.753906 136.042969 69.289062 134.644531 69.289062 Z M 134.644531 69.289062 " clip-rule="nonzero"/></clipPath><clipPath id="0d82e631a9"><path d="M 17.039062 77.171875 L 28.414062 77.171875 L 28.414062 96 L 17.039062 96 Z M 17.039062 77.171875 " clip-rule="nonzero"/></clipPath><clipPath id="1b22e149f0"><path d="M 17.042969 91.699219 C 18.269531 93.152344 19.335938 94.59375 20.644531 95.777344 C 20.863281 95.972656 22.5 95.238281 22.789062 94.609375 C 24.679688 90.582031 26.632812 86.554688 27.96875 82.332031 C 28.347656 81.140625 27.089844 78.859375 25.914062 77.964844 C 25.273438 77.480469 22.441406 78.488281 21.9375 79.492188 C 20.085938 83.199219 18.785156 87.195312 17.042969 91.695312 " clip-rule="nonzero"/></clipPath><clipPath id="0b68011ccb"><path d="M 106.417969 86 L 133 86 L 133 100.515625 L 106.417969 100.515625 Z M 106.417969 86 " clip-rule="nonzero"/></clipPath><clipPath id="64265b83a5"><path d="M 132.976562 86.148438 C 131.695312 86.257812 131.203125 86.179688 130.808594 86.34375 L 110.601562 94.957031 C 108.632812 95.84375 106.523438 97.09375 106.734375 99.933594 L 107.644531 100.414062 C 115.664062 96.839844 123.46875 93.386719 131.171875 89.722656 C 131.992188 89.339844 132.226562 87.703125 132.96875 86.148438 " clip-rule="nonzero"/></clipPath><clipPath id="e221a747ac"><path d="M 84 65.226562 L 96.667969 65.226562 L 96.667969 75.542969 L 84 75.542969 Z M 84 65.226562 " clip-rule="nonzero"/></clipPath><clipPath id="fedfdfee59"><path d="M 90.953125 75.421875 C 94.46875 75.414062 96.472656 73.859375 96.429688 71.179688 C 96.386719 68.339844 93.277344 65.78125 89.816406 65.738281 C 86.628906 65.699219 84.105469 67.84375 84.15625 70.554688 C 84.214844 73.628906 86.738281 75.429688 90.957031 75.421875 " clip-rule="nonzero"/></clipPath><clipPath id="9aa2e0ef3a"><path d="M 51 56.542969 L 63.625 56.542969 L 63.625 67 L 51 67 Z M 51 56.542969 " clip-rule="nonzero"/></clipPath><clipPath id="7413aba140"><path d="M 57.378906 66.847656 C 60.933594 66.886719 63.175781 65.148438 63.183594 62.34375 C 63.199219 59.429688 60.207031 56.894531 56.6875 56.835938 C 53.273438 56.785156 51.101562 58.660156 51.144531 61.636719 C 51.1875 64.625 53.796875 66.804688 57.378906 66.847656 " clip-rule="nonzero"/></clipPath><clipPath id="9827860a14"><path d="M 111.292969 37 L 123 37 L 123 46.769531 L 111.292969 46.769531 Z M 111.292969 37 " clip-rule="nonzero"/></clipPath><clipPath id="e8f0a982fd"><path d="M 116.582031 37.433594 C 113.507812 37.382812 111.457031 39.140625 111.507812 41.777344 C 111.558594 44.402344 114.210938 46.675781 117.285156 46.597656 C 119.9375 46.53125 122.097656 45.5625 122.410156 42.578125 C 122.691406 39.910156 119.820312 37.484375 116.574219 37.433594 " clip-rule="nonzero"/></clipPath><clipPath id="fcc902cf90"><path d="M 75 13 L 86 13 L 86 22 L 75 22 Z M 75 13 " clip-rule="nonzero"/></clipPath><clipPath id="065563cf86"><path d="M 79.863281 13.015625 C 77.507812 13.191406 75.457031 14.1875 75.296875 17.1875 C 75.160156 19.714844 77.601562 21.75 80.683594 21.792969 C 83.320312 21.832031 85.53125 21.105469 85.777344 17.988281 C 85.972656 15.480469 83.199219 13.097656 79.863281 13.015625 " clip-rule="nonzero"/></clipPath><clipPath id="c16f6ae72f"><path d="M 90 9 L 100.460938 9 L 100.460938 17.996094 L 90 17.996094 Z M 90 9 " clip-rule="nonzero"/></clipPath><clipPath id="455d938b2f"><path d="M 94.738281 9.144531 C 94.6875 9.144531 94.636719 9.144531 94.578125 9.152344 C 92.003906 9.265625 89.984375 10.53125 90.09375 13.269531 C 90.210938 16.25 92.449219 17.484375 94.773438 17.785156 C 94.847656 17.785156 94.910156 17.785156 94.976562 17.785156 C 98.015625 17.785156 100 16.242188 100.128906 14.09375 C 100.28125 11.664062 97.664062 9.179688 94.839844 9.152344 Z M 94.738281 9.144531 " clip-rule="nonzero"/></clipPath><clipPath id="8c4b57302d"><path d="M 101 108 L 118 108 L 118 118.429688 L 101 118.429688 Z M 101 108 " clip-rule="nonzero"/></clipPath><clipPath id="2c55a1a624"><path d="M 101.480469 118.429688 C 107.941406 116.554688 113.625 113.4375 117.84375 108.027344 C 111.238281 109.636719 105.417969 112.503906 101.480469 118.429688 " clip-rule="nonzero"/></clipPath><clipPath id="bb6302f024"><path d="M 33 116 L 40.871094 116 L 40.871094 126 L 33 126 Z M 33 116 " clip-rule="nonzero"/></clipPath><clipPath id="9adcb6fac5"><path d="M 39.25 124.242188 C 40.398438 123.042969 40.484375 121.183594 39.453125 119.875 C 38.3125 118.433594 37.359375 117.230469 36.136719 116.835938 C 33.644531 116.035156 33.09375 118.625 33.152344 120.628906 C 33.21875 123.164062 33.914062 125.804688 36.953125 125.816406 C 37.65625 125.816406 38.367188 125.148438 39.25 124.234375 " clip-rule="nonzero"/></clipPath><clipPath id="d6ed19d6c5"><path d="M 17.039062 50.570312 L 24 50.570312 L 24 59.800781 L 17.039062 59.800781 Z M 17.039062 50.570312 " clip-rule="nonzero"/></clipPath><clipPath id="43e937d0d0"><path d="M 19.351562 51.058594 C 17.921875 52.066406 17.296875 53.871094 17.621094 55.59375 C 18.015625 57.679688 18.863281 59.082031 21.007812 59.246094 C 21.894531 59.320312 23.597656 57.300781 23.792969 56.066406 C 24.191406 53.570312 23.277344 51 20.371094 50.703125 L 19.695312 50.816406 " clip-rule="nonzero"/></clipPath><clipPath id="8e8be10ee4"><path d="M 91 117 L 98.835938 117 L 98.835938 124.945312 L 91 124.945312 Z M 91 117 " clip-rule="nonzero"/></clipPath><clipPath id="bf67182edf"><path d="M 98.421875 117.933594 C 94.199219 117.230469 91.316406 119.886719 91.21875 124.460938 C 94.0625 121.886719 96.242188 119.910156 98.421875 117.933594 " clip-rule="nonzero"/></clipPath><clipPath id="67d9817544"><path d="M 80.417969 120.058594 L 88 120.058594 L 88 127 L 80.417969 127 Z M 80.417969 120.058594 " clip-rule="nonzero"/></clipPath><clipPath id="06adb0a81d"><path d="M 80.710938 126.84375 C 85.058594 127.496094 87.921875 124.917969 87.988281 120.398438 C 85.128906 122.925781 82.921875 124.886719 80.710938 126.84375 " clip-rule="nonzero"/></clipPath><clipPath id="2dda05826b"><path d="M 65.789062 121 L 73.375 121 L 73.375 128.203125 L 65.789062 128.203125 Z M 65.789062 121 " clip-rule="nonzero"/></clipPath><clipPath id="7fb05915b5"><path d="M 73.351562 121.5 C 69.332031 120.667969 66.332031 123.324219 65.960938 128.019531 C 68.902344 125.425781 71.128906 123.464844 73.351562 121.5 " clip-rule="nonzero"/></clipPath><clipPath id="59c95a6b58"><path d="M 119.421875 96 L 127.546875 96 L 127.546875 103 L 119.421875 103 Z M 119.421875 96 " clip-rule="nonzero"/></clipPath><clipPath id="d5e7190a72"><path d="M 127.300781 97.78125 L 125.773438 96.023438 L 119.835938 101.402344 C 120.285156 101.917969 120.738281 102.441406 121.179688 102.957031 Z M 127.300781 97.78125 " clip-rule="nonzero"/></clipPath></defs><g clip-path="url(#5d4e248e54)"><g clip-path="url(#01886c9710)"><path fill="#00fffc" d="M 5.660156 5.511719 L 144.339844 5.511719 L 144.339844 144.488281 L 5.660156 144.488281 Z M 5.660156 5.511719 " fill-opacity="1" fill-rule="nonzero"/></g></g><g clip-path="url(#278682d3bb)"><g clip-path="url(#ade1a949d9)"><path fill="#00fffc" d="M 5.660156 5.511719 L 144.339844 5.511719 L 144.339844 144.488281 L 5.660156 144.488281 Z M 5.660156 5.511719 " fill-opacity="1" fill-rule="nonzero"/></g></g><g clip-path="url(#1c1e8d7419)"><g clip-path="url(#a7193ee4d5)"><path fill="#00fffc" d="M 5.660156 5.511719 L 144.339844 5.511719 L 144.339844 144.488281 L 5.660156 144.488281 Z M 5.660156 5.511719 " fill-opacity="1" fill-rule="nonzero"/></g></g><g clip-path="url(#1fccdcd9f1)"><g clip-path="url(#effa1efa37)"><path fill="#00fffc" d="M 5.660156 5.511719 L 144.339844 5.511719 L 144.339844 144.488281 L 5.660156 144.488281 Z M 5.660156 5.511719 " fill-opacity="1" fill-rule="nonzero"/></g></g><g clip-path="url(#c690c614fa)"><g clip-path="url(#c80e0f2844)"><path fill="#00fffc" d="M 5.660156 5.511719 L 144.339844 5.511719 L 144.339844 144.488281 L 5.660156 144.488281 Z M 5.660156 5.511719 " fill-opacity="1" fill-rule="nonzero"/></g></g><g clip-path="url(#f31aa36b82)"><g clip-path="url(#28947e7dc7)"><path fill="#00fffc" d="M 5.660156 5.511719 L 144.339844 5.511719 L 144.339844 144.488281 L 5.660156 144.488281 Z M 5.660156 5.511719 " fill-opacity="1" fill-rule="nonzero"/></g></g><g clip-path="url(#f7f84c6f04)"><g clip-path="url(#ef86d6fb93)"><path fill="#00fffc" d="M 5.660156 5.511719 L 144.339844 5.511719 L 144.339844 144.488281 L 5.660156 144.488281 Z M 5.660156 5.511719 " fill-opacity="1" fill-rule="nonzero"/></g></g><g clip-path="url(#728eba2e21)"><g clip-path="url(#9ab766ded5)"><path fill="#ffffff" d="M 5.660156 5.511719 L 144.339844 5.511719 L 144.339844 144.488281 L 5.660156 144.488281 Z M 5.660156 5.511719 " fill-opacity="1" fill-rule="nonzero"/></g></g><g clip-path="url(#0d82e631a9)"><g clip-path="url(#1b22e149f0)"><path fill="#ffffff" d="M 5.660156 5.511719 L 144.339844 5.511719 L 144.339844 144.488281 L 5.660156 144.488281 Z M 5.660156 5.511719 " fill-opacity="1" fill-rule="nonzero"/></g></g><g clip-path="url(#0b68011ccb)"><g clip-path="url(#64265b83a5)"><path fill="#00fffc" d="M 5.660156 5.511719 L 144.339844 5.511719 L 144.339844 144.488281 L 5.660156 144.488281 Z M 5.660156 5.511719 " fill-opacity="1" fill-rule="nonzero"/></g></g><g clip-path="url(#e221a747ac)"><g clip-path="url(#fedfdfee59)"><path fill="#ffffff" d="M 5.660156 5.511719 L 144.339844 5.511719 L 144.339844 144.488281 L 5.660156 144.488281 Z M 5.660156 5.511719 " fill-opacity="1" fill-rule="nonzero"/></g></g><g clip-path="url(#9aa2e0ef3a)"><g clip-path="url(#7413aba140)"><path fill="#ffffff" d="M 5.660156 5.511719 L 144.339844 5.511719 L 144.339844 144.488281 L 5.660156 144.488281 Z M 5.660156 5.511719 " fill-opacity="1" fill-rule="nonzero"/></g></g><g clip-path="url(#9827860a14)"><g clip-path="url(#e8f0a982fd)"><path fill="#ffffff" d="M 5.660156 5.511719 L 144.339844 5.511719 L 144.339844 144.488281 L 5.660156 144.488281 Z M 5.660156 5.511719 " fill-opacity="1" fill-rule="nonzero"/></g></g><g clip-path="url(#fcc902cf90)"><g clip-path="url(#065563cf86)"><path fill="#ffffff" d="M 5.660156 5.511719 L 144.339844 5.511719 L 144.339844 144.488281 L 5.660156 144.488281 Z M 5.660156 5.511719 " fill-opacity="1" fill-rule="nonzero"/></g></g><g clip-path="url(#c16f6ae72f)"><g clip-path="url(#455d938b2f)"><path fill="#ffffff" d="M 5.660156 5.511719 L 144.339844 5.511719 L 144.339844 144.488281 L 5.660156 144.488281 Z M 5.660156 5.511719 " fill-opacity="1" fill-rule="nonzero"/></g></g><g clip-path="url(#8c4b57302d)"><g clip-path="url(#2c55a1a624)"><path fill="#ffffff" d="M 5.660156 5.511719 L 144.339844 5.511719 L 144.339844 144.488281 L 5.660156 144.488281 Z M 5.660156 5.511719 " fill-opacity="1" fill-rule="nonzero"/></g></g><g clip-path="url(#bb6302f024)"><g clip-path="url(#9adcb6fac5)"><path fill="#ffffff" d="M 5.660156 5.511719 L 144.339844 5.511719 L 144.339844 144.488281 L 5.660156 144.488281 Z M 5.660156 5.511719 " fill-opacity="1" fill-rule="nonzero"/></g></g><g clip-path="url(#d6ed19d6c5)"><g clip-path="url(#43e937d0d0)"><path fill="#ffffff" d="M 5.660156 5.511719 L 144.339844 5.511719 L 144.339844 144.488281 L 5.660156 144.488281 Z M 5.660156 5.511719 " fill-opacity="1" fill-rule="nonzero"/></g></g><g clip-path="url(#8e8be10ee4)"><g clip-path="url(#bf67182edf)"><path fill="#00fffc" d="M 5.660156 5.511719 L 144.339844 5.511719 L 144.339844 144.488281 L 5.660156 144.488281 Z M 5.660156 5.511719 " fill-opacity="1" fill-rule="nonzero"/></g></g><g clip-path="url(#67d9817544)"><g clip-path="url(#06adb0a81d)"><path fill="#00fffc" d="M 5.660156 5.511719 L 144.339844 5.511719 L 144.339844 144.488281 L 5.660156 144.488281 Z M 5.660156 5.511719 " fill-opacity="1" fill-rule="nonzero"/></g></g><g clip-path="url(#2dda05826b)"><g clip-path="url(#7fb05915b5)"><path fill="#00fffc" d="M 5.660156 5.511719 L 144.339844 5.511719 L 144.339844 144.488281 L 5.660156 144.488281 Z M 5.660156 5.511719 " fill-opacity="1" fill-rule="nonzero"/></g></g><g clip-path="url(#59c95a6b58)"><g clip-path="url(#d5e7190a72)"><path fill="#00fffc" d="M 5.660156 5.511719 L 144.339844 5.511719 L 144.339844 144.488281 L 5.660156 144.488281 Z M 5.660156 5.511719 " fill-opacity="1" fill-rule="nonzero"/></g></g></svg>