<svg xmlns="http://www.w3.org/2000/svg" xmlns:xlink="http://www.w3.org/1999/xlink" width="300" zoomAndPan="magnify" viewBox="0 0 224.87999 225" height="300" preserveAspectRatio="xMidYMid meet" version="1.0"><defs><clipPath id="daa0581e54"><path d="M 89.699219 79.128906 L 200 79.128906 L 200 181.683594 L 89.699219 181.683594 Z M 89.699219 79.128906 " clip-rule="nonzero"/></clipPath><clipPath id="6f0008367d"><path d="M 92.667969 181.496094 L 102.046875 169.132812 C 107.765625 161.691406 114.792969 155.71875 123.421875 152.050781 C 133.890625 147.59375 144.730469 143.964844 155.15625 139.402344 C 161.933594 136.4375 169.539062 133.953125 169.765625 124.09375 C 169.886719 118.757812 171.664062 113.472656 172.261719 108.125 C 172.882812 102.566406 175.726562 99.265625 180.921875 97.542969 C 185.726562 95.945312 190.554688 94.296875 195.183594 92.273438 C 200.335938 90.015625 201.097656 83.96875 196.316406 81.117188 C 193.679688 79.546875 189.84375 79.1875 186.695312 79.535156 C 183.375 79.90625 180.269531 81.878906 177 82.957031 C 155.355469 90.050781 159.417969 87.390625 156.476562 106.542969 C 154.582031 118.863281 150.417969 125.75 138.097656 128.441406 C 130.808594 130.03125 124.207031 134.628906 116.953125 136.589844 C 104.25 140.011719 97.734375 150.089844 90.335938 159.359375 C 89.847656 159.96875 89.78125 161.136719 89.890625 161.984375 L 92.710938 181.507812 " clip-rule="nonzero"/></clipPath><clipPath id="576b31d1f6"><path d="M 13.359375 57.15625 L 160 57.15625 L 160 124.707031 L 13.359375 124.707031 Z M 13.359375 57.15625 " clip-rule="nonzero"/></clipPath><clipPath id="06a85ffc5b"><path d="M 80.769531 57.660156 C 78.070312 57.660156 75.335938 58.195312 72.566406 59.230469 C 60.855469 63.621094 51.902344 70.972656 46.867188 82.730469 C 42.085938 93.90625 41.476562 95.203125 31.691406 95.203125 C 30.417969 95.203125 28.980469 95.179688 27.355469 95.160156 C 27.246094 95.160156 27.140625 95.160156 27.03125 95.160156 C 23.390625 95.160156 20.515625 96.171875 19.078125 99.898438 L 14.804688 111.054688 C 14.238281 112.785156 13.945312 114.332031 13.933594 115.726562 L 13.933594 115.867188 C 13.957031 119.410156 15.839844 121.980469 19.851562 124.105469 L 22.441406 117.839844 C 26.355469 108.296875 26.070312 106.421875 31.386719 106.421875 C 33.175781 106.421875 35.59375 106.628906 39.023438 106.835938 C 39.65625 106.871094 40.265625 106.890625 40.855469 106.890625 C 47.0625 106.890625 50.933594 104.722656 53.089844 98.363281 C 54.113281 95.332031 55.996094 92.589844 57.480469 89.710938 C 60.757812 83.382812 65.605469 78.742188 72.046875 75.613281 C 75.140625 74.109375 78.144531 73.261719 81.175781 73.261719 C 83.941406 73.261719 86.742188 73.957031 89.660156 75.503906 C 97.832031 79.796875 106.308594 83.535156 114.792969 87.195312 C 116.570312 87.957031 118.769531 88.644531 120.730469 88.644531 C 121.386719 88.644531 122.007812 88.566406 122.574219 88.394531 C 133.488281 85.082031 144.308594 81.410156 155.015625 77.464844 C 160.039062 75.613281 160.527344 70.082031 156.464844 66.5625 C 154.503906 64.863281 152.445312 64.25 150.320312 64.25 C 148.46875 64.25 146.574219 64.71875 144.65625 65.332031 C 138.097656 67.433594 131.660156 70.046875 124.957031 71.476562 C 123.476562 71.789062 121.886719 71.953125 120.273438 71.953125 C 117.769531 71.953125 115.230469 71.5625 113.050781 70.722656 C 105.457031 67.8125 98.214844 63.957031 90.957031 60.242188 C 87.570312 58.511719 84.179688 57.660156 80.761719 57.660156 Z M 80.769531 57.660156 " clip-rule="nonzero"/></clipPath><clipPath id="154137f86f"><path d="M 33 29 L 169 29 L 169 70.992188 L 33 70.992188 Z M 33 29 " clip-rule="nonzero"/></clipPath><clipPath id="d377de9032"><path d="M 120.925781 60.113281 L 132.378906 56.679688 C 142.617188 53.574219 152.945312 50.730469 163.023438 47.167969 C 165.332031 46.351562 168.644531 42.507812 168.210938 41.046875 C 167.433594 38.496094 164.417969 36.121094 161.769531 34.804688 C 159.972656 33.910156 157.109375 34.585938 154.894531 35.1875 C 147.195312 37.277344 139.457031 39.304688 131.953125 41.984375 C 124.675781 44.585938 117.996094 44.859375 111.1875 40.589844 C 107.222656 38.09375 102.484375 36.820312 98.527344 34.324219 C 90.0625 28.976562 81.535156 27.953125 72.164062 31.796875 C 68.015625 33.507812 63.394531 34.074219 59.015625 35.230469 C 46.976562 38.421875 38.292969 45.535156 34.132812 57.421875 C 33.183594 60.144531 33.21875 63.511719 33.828125 66.367188 C 34.1875 68.054688 36.429688 70.296875 38.042969 70.484375 C 39.425781 70.648438 41.867188 68.566406 42.542969 66.941406 C 46.769531 56.84375 54.441406 51.253906 64.800781 48.78125 C 69.039062 47.769531 73.167969 45.949219 77.4375 45.578125 C 81.730469 45.207031 86.492188 45.242188 90.421875 46.746094 C 98.703125 49.902344 106.546875 54.183594 114.609375 57.910156 L 120.917969 60.113281 " clip-rule="nonzero"/></clipPath><clipPath id="980be2f11d"><path d="M 63 108.429688 L 119 108.429688 L 119 211.796875 L 63 211.796875 Z M 63 108.429688 " clip-rule="nonzero"/></clipPath><clipPath id="dadbeb0481"><path d="M 106.734375 108.582031 C 105.882812 108.582031 105.078125 108.691406 104.367188 108.917969 C 92.898438 112.667969 83.398438 119.429688 77.371094 130.347656 L 73.210938 136.667969 C 67.601562 146.167969 61.585938 155.449219 65.542969 167.519531 C 67.21875 172.640625 67.480469 178.21875 68.570312 183.535156 C 69.496094 188.011719 69.203125 192.007812 66.28125 195.875 C 64.734375 197.925781 64.179688 200.726562 63.777344 201.707031 C 63.777344 207.902344 65.902344 211.214844 68.808594 211.226562 L 68.832031 211.226562 C 69.484375 211.226562 70.171875 211.050781 70.890625 210.726562 C 76.675781 208.003906 83.527344 194.644531 82.371094 188.21875 C 80.988281 180.546875 79.269531 172.921875 78.242188 165.199219 C 77.785156 161.765625 77.570312 157.5625 79.117188 154.730469 C 84.203125 145.382812 88.179688 134.921875 98.84375 129.910156 L 113.203125 122.917969 C 118.964844 120.152344 120.046875 114.628906 114.804688 111.097656 C 112.679688 109.671875 109.476562 108.582031 106.742188 108.582031 Z M 106.734375 108.582031 " clip-rule="nonzero"/></clipPath><clipPath id="04ca36f505"><path d="M 38 102 L 72.644531 102 L 72.644531 167 L 38 167 Z M 38 102 " clip-rule="nonzero"/></clipPath><clipPath id="f3bd09742c"><path d="M 72.21875 110.933594 C 70.5625 108.515625 69.222656 104.265625 66.640625 103.273438 C 62.304688 101.621094 61.378906 106.628906 60.007812 109.519531 L 49.582031 132.796875 C 45.941406 140.851562 41.746094 148.683594 38.816406 156.972656 C 37.902344 159.554688 39.351562 164.730469 41.476562 166.234375 C 45.039062 168.773438 46.476562 164.304688 47.785156 161.710938 C 50.539062 156.222656 52.839844 150.492188 55.714844 145.066406 L 69.125 120.890625 C 70.519531 118.234375 70.976562 115.085938 72.230469 110.933594 " clip-rule="nonzero"/></clipPath><clipPath id="1c7a09f707"><path d="M 107 150 L 176.597656 150 L 176.597656 175.171875 L 107 175.171875 Z M 107 150 " clip-rule="nonzero"/></clipPath><clipPath id="e1225ae1b2"><path d="M 107.253906 175.046875 C 110.914062 173.578125 113.226562 172.703125 115.480469 171.734375 C 123.792969 168.152344 131.972656 164.207031 140.460938 161.113281 C 143.261719 160.101562 147.3125 160.296875 149.992188 161.59375 C 158.9375 165.90625 171.878906 161.289062 176.238281 150.730469 C 172.816406 152.105469 169.929688 152.929688 167.382812 154.371094 C 162.019531 157.375 157.378906 156.753906 152.152344 153.542969 C 149.472656 151.898438 145.15625 151.503906 142.019531 152.289062 C 136.277344 153.738281 130.601562 155.980469 125.382812 158.804688 C 118.652344 162.441406 112.246094 166.8125 107.253906 175.046875 " clip-rule="nonzero"/></clipPath><clipPath id="2e2277e295"><path d="M 83 165 L 148.984375 165 L 148.984375 210 L 83 210 Z M 83 165 " clip-rule="nonzero"/></clipPath><clipPath id="3c0a02b940"><path d="M 148.316406 168.628906 L 148.523438 167.378906 C 145.832031 166.40625 142.707031 165.101562 140.285156 165.90625 C 132.757812 168.421875 125.589844 171.667969 119.785156 177.640625 C 111.492188 186.160156 103.34375 194.90625 91.609375 199.265625 C 88.320312 200.484375 85.96875 204.253906 83.191406 206.847656 L 85.097656 209.429688 C 93.210938 205.027344 102.625 202.011719 109.171875 195.929688 C 120.667969 185.253906 131.734375 174.546875 147.050781 169.601562 L 147.890625 168.957031 " clip-rule="nonzero"/></clipPath><clipPath id="ac173b8399"><path d="M 183 103.546875 L 211 103.546875 L 211 123.894531 L 183 123.894531 Z M 183 103.546875 " clip-rule="nonzero"/></clipPath><clipPath id="7831a3d8bf"><path d="M 201.863281 103.941406 C 200.03125 103.941406 198.15625 104.472656 196.273438 105.464844 C 193.734375 106.804688 191.28125 108.539062 188.570312 109.289062 C 184.550781 110.398438 182.121094 112.949219 183.546875 116.589844 C 184.648438 119.355469 187.960938 121.25 190.488281 123.714844 C 196.644531 121.121094 201.535156 119.027344 206.4375 116.992188 C 209.355469 115.78125 210.914062 113.648438 210.949219 111.390625 L 210.949219 111.226562 C 210.914062 109.453125 209.945312 107.609375 207.960938 106.117188 C 206 104.636719 203.953125 103.941406 201.863281 103.941406 Z M 201.863281 103.941406 " clip-rule="nonzero"/></clipPath><clipPath id="5314550d08"><path d="M 25.542969 116 L 42.597656 116 L 42.597656 144 L 25.542969 144 Z M 25.542969 116 " clip-rule="nonzero"/></clipPath><clipPath id="5ff0b8023b"><path d="M 25.546875 137.539062 C 27.390625 139.714844 28.992188 141.875 30.953125 143.648438 C 31.277344 143.945312 33.730469 142.84375 34.164062 141.894531 C 36.996094 135.859375 39.929688 129.824219 41.933594 123.496094 C 42.5 121.707031 40.613281 118.289062 38.851562 116.949219 C 37.890625 116.21875 33.644531 117.730469 32.890625 119.234375 C 30.113281 124.792969 28.164062 130.785156 25.546875 137.527344 " clip-rule="nonzero"/></clipPath><clipPath id="1d5e3e7a57"><path d="M 159.542969 129 L 200 129 L 200 150.753906 L 159.542969 150.753906 Z M 159.542969 129 " clip-rule="nonzero"/></clipPath><clipPath id="5f70d53c56"><path d="M 199.355469 129.214844 C 197.4375 129.378906 196.699219 129.257812 196.109375 129.507812 L 165.8125 142.417969 C 162.859375 143.746094 159.699219 145.621094 160.015625 149.882812 L 161.378906 150.601562 C 173.40625 145.238281 185.105469 140.066406 196.652344 134.574219 C 197.886719 133.996094 198.234375 131.546875 199.34375 129.214844 " clip-rule="nonzero"/></clipPath><clipPath id="d03336ae79"><path d="M 126 98 L 144.925781 98 L 144.925781 113.3125 L 126 113.3125 Z M 126 98 " clip-rule="nonzero"/></clipPath><clipPath id="fc040f0ec2"><path d="M 136.355469 113.132812 C 141.625 113.125 144.632812 110.792969 144.570312 106.773438 C 144.503906 102.511719 139.839844 98.679688 134.65625 98.613281 C 129.871094 98.558594 126.089844 101.773438 126.167969 105.835938 C 126.253906 110.445312 130.035156 113.144531 136.363281 113.132812 " clip-rule="nonzero"/></clipPath><clipPath id="9ec4b05397"><path d="M 76 85 L 95 85 L 95 101 L 76 101 Z M 76 85 " clip-rule="nonzero"/></clipPath><clipPath id="2137900a48"><path d="M 86.023438 100.28125 C 91.351562 100.332031 94.714844 97.730469 94.726562 93.523438 C 94.75 89.15625 90.261719 85.355469 84.988281 85.265625 C 79.867188 85.191406 76.609375 88 76.675781 92.46875 C 76.742188 96.945312 80.652344 100.214844 86.023438 100.28125 " clip-rule="nonzero"/></clipPath><clipPath id="d572022807"><path d="M 167 56 L 184 56 L 184 70 L 167 70 Z M 167 56 " clip-rule="nonzero"/></clipPath><clipPath id="7c8dc0b2f7"><path d="M 174.777344 56.179688 C 170.171875 56.101562 167.097656 58.738281 167.175781 62.695312 C 167.25 66.625 171.226562 70.035156 175.835938 69.917969 C 179.8125 69.820312 183.046875 68.371094 183.515625 63.890625 C 183.941406 59.894531 179.636719 56.253906 174.765625 56.179688 " clip-rule="nonzero"/></clipPath><clipPath id="ffdf55f677"><path d="M 112.441406 19 L 129 19 L 129 33 L 112.441406 33 Z M 112.441406 19 " clip-rule="nonzero"/></clipPath><clipPath id="aedae12df7"><path d="M 119.730469 19.574219 C 116.199219 19.835938 113.128906 21.328125 112.886719 25.828125 C 112.679688 29.617188 116.339844 32.667969 120.960938 32.734375 C 124.914062 32.789062 128.226562 31.699219 128.597656 27.027344 C 128.890625 23.265625 124.730469 19.695312 119.730469 19.574219 " clip-rule="nonzero"/></clipPath><clipPath id="2aa9a5a9d4"><path d="M 135 13.203125 L 150.609375 13.203125 L 150.609375 27 L 135 27 Z M 135 13.203125 " clip-rule="nonzero"/></clipPath><clipPath id="7b64989c64"><path d="M 142.03125 13.769531 C 141.953125 13.769531 141.878906 13.769531 141.789062 13.777344 C 137.933594 13.953125 134.90625 15.847656 135.070312 19.957031 C 135.242188 24.421875 138.597656 26.273438 142.085938 26.722656 C 142.195312 26.722656 142.292969 26.722656 142.390625 26.722656 C 146.941406 26.722656 149.917969 24.410156 150.113281 21.1875 C 150.34375 17.546875 146.421875 13.820312 142.183594 13.777344 Z M 142.03125 13.769531 " clip-rule="nonzero"/></clipPath><clipPath id="b08face9e3"><path d="M 152 162 L 177 162 L 177 177.613281 L 152 177.613281 Z M 152 162 " clip-rule="nonzero"/></clipPath><clipPath id="3622edc7d8"><path d="M 152.140625 177.605469 C 161.824219 174.796875 170.34375 170.121094 176.675781 162.015625 C 166.769531 164.425781 158.042969 168.726562 152.140625 177.605469 " clip-rule="nonzero"/></clipPath><clipPath id="1c053a52a8"><path d="M 49.09375 175 L 61 175 L 61 189 L 49.09375 189 Z M 49.09375 175 " clip-rule="nonzero"/></clipPath><clipPath id="d3720e635f"><path d="M 58.839844 186.324219 C 60.5625 184.523438 60.691406 181.734375 59.144531 179.773438 C 57.4375 177.617188 56.007812 175.808594 54.179688 175.222656 C 50.441406 174.023438 49.613281 177.902344 49.699219 180.90625 C 49.800781 184.710938 50.84375 188.664062 55.398438 188.6875 C 56.457031 188.6875 57.523438 187.683594 58.839844 186.3125 " clip-rule="nonzero"/></clipPath><clipPath id="60a5751281"><path d="M 26 76 L 36 76 L 36 89 L 26 89 Z M 26 76 " clip-rule="nonzero"/></clipPath><clipPath id="d572a9581c"><path d="M 29.011719 76.605469 C 26.867188 78.121094 25.929688 80.820312 26.417969 83.402344 C 27.007812 86.53125 28.28125 88.632812 31.496094 88.882812 C 32.824219 88.992188 35.375 85.964844 35.667969 84.113281 C 36.269531 80.375 34.894531 76.519531 30.539062 76.070312 L 29.523438 76.246094 " clip-rule="nonzero"/></clipPath><clipPath id="0ba612be28"><path d="M 136 176 L 148 176 L 148 187 L 136 187 Z M 136 176 " clip-rule="nonzero"/></clipPath><clipPath id="a71306dcdb"><path d="M 147.554688 176.867188 C 141.222656 175.808594 136.898438 179.796875 136.757812 186.648438 C 141.015625 182.792969 144.285156 179.828125 147.554688 176.867188 " clip-rule="nonzero"/></clipPath><clipPath id="e3f0fcad46"><path d="M 121 180.054688 L 131.929688 180.054688 L 131.929688 191 L 121 191 Z M 121 180.054688 " clip-rule="nonzero"/></clipPath><clipPath id="fb6c42b58a"><path d="M 121.003906 190.222656 C 127.519531 191.203125 131.8125 187.335938 131.910156 180.558594 C 127.628906 184.351562 124.316406 187.292969 121.003906 190.222656 " clip-rule="nonzero"/></clipPath><clipPath id="d21d5f52dc"><path d="M 98.632812 181 L 110 181 L 110 192 L 98.632812 192 Z M 98.632812 181 " clip-rule="nonzero"/></clipPath><clipPath id="556e84d1c4"><path d="M 109.96875 182.214844 C 103.945312 180.960938 99.445312 184.949219 98.886719 191.988281 C 103.300781 188.097656 106.632812 185.15625 109.96875 182.214844 " clip-rule="nonzero"/></clipPath><clipPath id="ebe8e6d3fb"><path d="M 179.035156 144 L 191 144 L 191 154.824219 L 179.035156 154.824219 Z M 179.035156 144 " clip-rule="nonzero"/></clipPath><clipPath id="6b35590137"><path d="M 190.847656 146.65625 L 188.558594 144.019531 L 179.660156 152.082031 C 180.335938 152.855469 181.011719 153.640625 181.675781 154.414062 Z M 190.847656 146.65625 " clip-rule="nonzero"/></clipPath></defs><g clip-path="url(#daa0581e54)"><g clip-path="url(#6f0008367d)"><path fill="#00fffc" d="M 8.488281 8.320312 L 216.390625 8.320312 L 216.390625 216.679688 L 8.488281 216.679688 Z M 8.488281 8.320312 " fill-opacity="1" fill-rule="nonzero"/></g></g><g clip-path="url(#576b31d1f6)"><g clip-path="url(#06a85ffc5b)"><path fill="#00fffc" d="M 8.488281 8.320312 L 216.390625 8.320312 L 216.390625 216.679688 L 8.488281 216.679688 Z M 8.488281 8.320312 " fill-opacity="1" fill-rule="nonzero"/></g></g><g clip-path="url(#154137f86f)"><g clip-path="url(#d377de9032)"><path fill="#00fffc" d="M 8.488281 8.320312 L 216.390625 8.320312 L 216.390625 216.679688 L 8.488281 216.679688 Z M 8.488281 8.320312 " fill-opacity="1" fill-rule="nonzero"/></g></g><g clip-path="url(#980be2f11d)"><g clip-path="url(#dadbeb0481)"><path fill="#00fffc" d="M 8.488281 8.320312 L 216.390625 8.320312 L 216.390625 216.679688 L 8.488281 216.679688 Z M 8.488281 8.320312 " fill-opacity="1" fill-rule="nonzero"/></g></g><g clip-path="url(#04ca36f505)"><g clip-path="url(#f3bd09742c)"><path fill="#00fffc" d="M 8.488281 8.320312 L 216.390625 8.320312 L 216.390625 216.679688 L 8.488281 216.679688 Z M 8.488281 8.320312 " fill-opacity="1" fill-rule="nonzero"/></g></g><g clip-path="url(#1c7a09f707)"><g clip-path="url(#e1225ae1b2)"><path fill="#00fffc" d="M 8.488281 8.320312 L 216.390625 8.320312 L 216.390625 216.679688 L 8.488281 216.679688 Z M 8.488281 8.320312 " fill-opacity="1" fill-rule="nonzero"/></g></g><g clip-path="url(#2e2277e295)"><g clip-path="url(#3c0a02b940)"><path fill="#00fffc" d="M 8.488281 8.320312 L 216.390625 8.320312 L 216.390625 216.679688 L 8.488281 216.679688 Z M 8.488281 8.320312 " fill-opacity="1" fill-rule="nonzero"/></g></g><g clip-path="url(#ac173b8399)"><g clip-path="url(#7831a3d8bf)"><path fill="#ffffff" d="M 8.488281 8.320312 L 216.390625 8.320312 L 216.390625 216.679688 L 8.488281 216.679688 Z M 8.488281 8.320312 " fill-opacity="1" fill-rule="nonzero"/></g></g><g clip-path="url(#5314550d08)"><g clip-path="url(#5ff0b8023b)"><path fill="#ffffff" d="M 8.488281 8.320312 L 216.390625 8.320312 L 216.390625 216.679688 L 8.488281 216.679688 Z M 8.488281 8.320312 " fill-opacity="1" fill-rule="nonzero"/></g></g><g clip-path="url(#1d5e3e7a57)"><g clip-path="url(#5f70d53c56)"><path fill="#00fffc" d="M 8.488281 8.320312 L 216.390625 8.320312 L 216.390625 216.679688 L 8.488281 216.679688 Z M 8.488281 8.320312 " fill-opacity="1" fill-rule="nonzero"/></g></g><g clip-path="url(#d03336ae79)"><g clip-path="url(#fc040f0ec2)"><path fill="#ffffff" d="M 8.488281 8.320312 L 216.390625 8.320312 L 216.390625 216.679688 L 8.488281 216.679688 Z M 8.488281 8.320312 " fill-opacity="1" fill-rule="nonzero"/></g></g><g clip-path="url(#9ec4b05397)"><g clip-path="url(#2137900a48)"><path fill="#ffffff" d="M 8.488281 8.320312 L 216.390625 8.320312 L 216.390625 216.679688 L 8.488281 216.679688 Z M 8.488281 8.320312 " fill-opacity="1" fill-rule="nonzero"/></g></g><g clip-path="url(#d572022807)"><g clip-path="url(#7c8dc0b2f7)"><path fill="#ffffff" d="M 8.488281 8.320312 L 216.390625 8.320312 L 216.390625 216.679688 L 8.488281 216.679688 Z M 8.488281 8.320312 " fill-opacity="1" fill-rule="nonzero"/></g></g><g clip-path="url(#ffdf55f677)"><g clip-path="url(#aedae12df7)"><path fill="#ffffff" d="M 8.488281 8.320312 L 216.390625 8.320312 L 216.390625 216.679688 L 8.488281 216.679688 Z M 8.488281 8.320312 " fill-opacity="1" fill-rule="nonzero"/></g></g><g clip-path="url(#2aa9a5a9d4)"><g clip-path="url(#7b64989c64)"><path fill="#ffffff" d="M 8.488281 8.320312 L 216.390625 8.320312 L 216.390625 216.679688 L 8.488281 216.679688 Z M 8.488281 8.320312 " fill-opacity="1" fill-rule="nonzero"/></g></g><g clip-path="url(#b08face9e3)"><g clip-path="url(#3622edc7d8)"><path fill="#ffffff" d="M 8.488281 8.320312 L 216.390625 8.320312 L 216.390625 216.679688 L 8.488281 216.679688 Z M 8.488281 8.320312 " fill-opacity="1" fill-rule="nonzero"/></g></g><g clip-path="url(#1c053a52a8)"><g clip-path="url(#d3720e635f)"><path fill="#ffffff" d="M 8.488281 8.320312 L 216.390625 8.320312 L 216.390625 216.679688 L 8.488281 216.679688 Z M 8.488281 8.320312 " fill-opacity="1" fill-rule="nonzero"/></g></g><g clip-path="url(#60a5751281)"><g clip-path="url(#d572a9581c)"><path fill="#ffffff" d="M 8.488281 8.320312 L 216.390625 8.320312 L 216.390625 216.679688 L 8.488281 216.679688 Z M 8.488281 8.320312 " fill-opacity="1" fill-rule="nonzero"/></g></g><g clip-path="url(#0ba612be28)"><g clip-path="url(#a71306dcdb)"><path fill="#00fffc" d="M 8.488281 8.320312 L 216.390625 8.320312 L 216.390625 216.679688 L 8.488281 216.679688 Z M 8.488281 8.320312 " fill-opacity="1" fill-rule="nonzero"/></g></g><g clip-path="url(#e3f0fcad46)"><g clip-path="url(#fb6c42b58a)"><path fill="#00fffc" d="M 8.488281 8.320312 L 216.390625 8.320312 L 216.390625 216.679688 L 8.488281 216.679688 Z M 8.488281 8.320312 " fill-opacity="1" fill-rule="nonzero"/></g></g><g clip-path="url(#d21d5f52dc)"><g clip-path="url(#556e84d1c4)"><path fill="#00fffc" d="M 8.488281 8.320312 L 216.390625 8.320312 L 216.390625 216.679688 L 8.488281 216.679688 Z M 8.488281 8.320312 " fill-opacity="1" fill-rule="nonzero"/></g></g><g clip-path="url(#ebe8e6d3fb)"><g clip-path="url(#6b35590137)"><path fill="#00fffc" d="M 8.488281 8.320312 L 216.390625 8.320312 L 216.390625 216.679688 L 8.488281 216.679688 Z M 8.488281 8.320312 " fill-opacity="1" fill-rule="nonzero"/></g></g></svg>